<?xml version="1.0" encoding="utf-8"?>
<!-- Generator: Adobe Illustrator 21.0.0, SVG Export Plug-In . SVG Version: 6.00 Build 0)  -->
<svg version="1.1" id="Слой_1" xmlns="http://www.w3.org/2000/svg" xmlns:xlink="http://www.w3.org/1999/xlink" x="0px" y="0px"
	 viewBox="0 0 129 129" style="enable-background:new 0 0 129 129;" xml:space="preserve">
<style type="text/css">
	.st0{fill:#FFFFFF;}
</style>
<g>
	<path class="st0" d="M41.2,60.4c-1-1-2.2-1.5-3.6-1.5c-1.4,0-2.6,0.5-3.6,1.5c-2,2-2,5.2,0,7.2l18.9,18.9c1,1,2.2,1.5,3.6,1.5
		l0.3,0c1.4-0.1,2.7-0.8,3.7-1.9l47.3-56.7c1.7-2.1,1.5-5.3-0.6-7.2c-2.1-1.7-5.3-1.5-7.2,0.6L56.1,75.3L41.2,60.4z"/>
	<path class="st0" d="M114.3,33.2c-0.7-1.1-1.8-1.9-3.2-2.3c-1.3-0.3-2.7-0.1-3.8,0.6c-2.4,1.5-3.1,4.6-1.6,7
		c12.2,19.4,9.4,44.3-6.9,60.6c-9.2,9.2-21.5,14.3-34.5,14.3S39,108.3,29.8,99.1c-9.2-9.2-14.3-21.5-14.3-34.5S20.6,39.2,29.8,30
		C46,13.9,70.9,11,90.3,23c2.4,1.5,5.5,0.8,7-1.6c1.5-2.4,0.8-5.5-1.6-7l0,0C72.2-0.2,42.2,3.2,22.7,22.8
		C11.6,33.9,5.4,48.7,5.4,64.5c0,15.8,6.1,30.6,17.2,41.8c11.2,11.2,26,17.3,41.7,17.3c15.7,0,30.6-6.1,41.7-17.3
		C125.7,86.7,129.1,56.6,114.3,33.2z"/>
</g>
</svg>
