<?xml version="1.0" encoding="utf-8"?>
<!-- Generator: Adobe Illustrator 20.1.0, SVG Export Plug-In . SVG Version: 6.00 Build 0)  -->
<svg version="1.1" id="Слой_1" xmlns="http://www.w3.org/2000/svg" xmlns:xlink="http://www.w3.org/1999/xlink" x="0px" y="0px"
	 viewBox="0 0 16 16" style="enable-background:new 0 0 16 16;" xml:space="preserve">
<style type="text/css">
	.st0{fill:#EAAC44;}
	.st1{fill:url(#SVGID_1_);}
</style>
<path class="st0" d="M7.5,14.7c6.1-3.2,7.2-6.9,8.4-11.7l-3.1,1.8c-0.1,3.3-1.9,6.2-5.2,8.1C2.8,9.7,1.3,5.9,2.8,4.7
	c0.7-0.5,1.9-0.5,3.5,1.4l0.8-0.8C4.7,1.6,2.2,2.2,1.2,2.9C-0.9,4.7-0.1,9.6,7.5,14.7z"/>
<linearGradient id="SVGID_1_" gradientUnits="userSpaceOnUse" x1="3.2432" y1="15.0122" x2="12.6748" y2="9.5668" gradientTransform="matrix(1 0 0 -1 0 18)">
	<stop  offset="0.2282" style="stop-color:#D24A43"/>
	<stop  offset="0.4533" style="stop-color:#D76743"/>
	<stop  offset="1" style="stop-color:#EAAC44"/>
</linearGradient>
<path class="st1" d="M15.8,2.9l-3.2,1.9c-6.3-3.9-7,7.4-11.2,4.6C1.1,8.8,0.7,8.2,0.5,7.7C5.3,12.3,5-4.5,15.8,2.9z"/>
</svg>
