<?xml version="1.0" encoding="utf-8"?>
<!-- Generator: Adobe Illustrator 20.1.0, SVG Export Plug-In . SVG Version: 6.00 Build 0)  -->
<svg version="1.1" id="Слой_1" xmlns="http://www.w3.org/2000/svg" xmlns:xlink="http://www.w3.org/1999/xlink" x="0px" y="0px"
	 viewBox="0 0 20 14" style="enable-background:new 0 0 20 14;" xml:space="preserve">
<g id="mail">
	<g>
		<path style="fill:#939BA0;" d="M14.6,0.4c0-0.1-0.1-0.3-0.2-0.3C14.3,0,14.1,0,14,0L0.4,3.2c-0.1,0-0.3,0.1-0.3,0.2
			C0,3.5,0,3.7,0,3.8l2.2,9.4c0.1,0.2,0.3,0.4,0.5,0.4h0.1l13.5-3.2c0.1,0,0.3-0.1,0.3-0.2c0.1-0.1,0.1-0.3,0.1-0.4L14.6,0.4z
			 M14.7,5.4l-2.3-1.3l1.5-2.2L14.7,5.4z M1.4,4.8l2.3,1.3L2.2,8.3L1.4,4.8z M2,3.9l10.9-2.6L8.7,7.6L2,3.9z M3.2,12.4L2.6,9.8
			l2.1-3.2l3.9,2.2c0.1,0,0.2,0.1,0.3,0.1c0.2,0,0.3-0.1,0.5-0.2L11.9,5l3.3,1.9l0.6,2.6L3.2,12.4z"/>
		<path style="fill:#939BA0;" d="M19.5,0.3h-3.4c-0.3,0-0.5,0.2-0.5,0.5s0.2,0.5,0.5,0.5h3.4c0.3,0,0.5-0.2,0.5-0.5
			C20,0.6,19.8,0.3,19.5,0.3z"/>
		<path style="fill:#939BA0;" d="M18.9,3.1h-2.3c-0.3,0-0.5,0.2-0.5,0.5s0.2,0.5,0.5,0.5h2.3c0.3,0,0.5-0.2,0.5-0.5
			C19.4,3.3,19.2,3.1,18.9,3.1z"/>
		<path style="fill:#939BA0;" d="M18.3,5.9h-1.2c-0.3,0-0.5,0.2-0.5,0.5s0.2,0.5,0.5,0.5h1.2c0.3,0,0.5-0.2,0.5-0.5
			C18.9,6.1,18.6,5.9,18.3,5.9z"/>
	</g>
</g>
</svg>
