<?xml version="1.0" encoding="utf-8"?>
<!-- Generator: Adobe Illustrator 20.1.0, SVG Export Plug-In . SVG Version: 6.00 Build 0)  -->
<svg version="1.1" id="Слой_1" xmlns="http://www.w3.org/2000/svg" xmlns:xlink="http://www.w3.org/1999/xlink" x="0px" y="0px"
	 viewBox="0 0 40 40" style="enable-background:new 0 0 40 40;" xml:space="preserve">
<g id="social_x5F_ok">
	<g>
		<g>
			<g>
				<path style="fill:#A0AEB7;" d="M16.6,29.5c-0.4-0.1-0.7-0.3-0.9-0.6c-0.2-0.4-0.2-0.9,0.1-1.3c0.2-0.2,0.4-0.5,0.7-0.7
					c0.8-0.8,1.6-1.6,2.4-2.4c0.1-0.1,0.2-0.2,0.3-0.3c-0.2,0-0.5-0.1-0.7-0.1c-0.9-0.1-1.8-0.4-2.6-0.9c-0.3-0.2-0.7-0.5-0.9-0.7
					c-0.5-0.4-0.5-1-0.1-1.5c0.3-0.4,0.9-0.5,1.4-0.2c0.4,0.2,0.8,0.5,1.2,0.6c2.1,0.9,4.1,0.7,6-0.5c0.3-0.2,0.5-0.3,0.9-0.3
					s0.8,0.3,1,0.7s0.1,0.8-0.2,1.1c-0.8,0.8-1.8,1.3-2.8,1.5c-0.4,0.1-0.9,0.2-1.3,0.3c0.1,0.1,0.2,0.2,0.3,0.3c1,1,2,2,3,3
					c0.3,0.3,0.5,0.7,0.4,1.1c-0.1,0.5-0.5,0.8-1,0.9l0,0c-0.1,0-0.2,0-0.2,0c-0.4-0.1-0.6-0.3-0.9-0.6c-0.7-0.7-1.4-1.4-2.1-2.1
					c-0.3-0.3-0.3-0.3-0.6,0l-0.1,0.1c-0.7,0.7-1.3,1.3-2,2c-0.2,0.2-0.5,0.5-0.8,0.6C16.8,29.5,16.7,29.5,16.6,29.5z"/>
				<path style="fill:#A0AEB7;" d="M20.5,11.5c0.3,0.1,0.6,0.1,0.8,0.2c1.8,0.5,3.1,2,3.3,3.8c0.3,2.1-0.8,3.9-2.7,4.8
					c-2,0.9-4.5,0.1-5.6-1.8c-1.3-2.1-0.7-4.8,1.3-6.2c0.6-0.4,1.3-0.7,2-0.8c0.1,0,0.1,0,0.2,0C20,11.5,20.2,11.5,20.5,11.5z
					 M17.9,16.1c0,1.2,1,2.2,2.3,2.2c1.2,0,2.2-1,2.2-2.2s-1-2.2-2.2-2.2C18.9,13.8,17.9,14.8,17.9,16.1z"/>
			</g>
		</g>
		<rect x="0.5" y="0.5" style="fill:none;stroke:#A0AEB7;stroke-miterlimit:10;" width="39" height="39"/>
	</g>
</g>
</svg>
