<?xml version="1.0" encoding="utf-8"?>
<!-- Generator: Adobe Illustrator 20.1.0, SVG Export Plug-In . SVG Version: 6.00 Build 0)  -->
<svg version="1.1" xmlns="http://www.w3.org/2000/svg" xmlns:xlink="http://www.w3.org/1999/xlink" x="0px" y="0px"
	 viewBox="0 0 41 62" enable-background="new 0 0 41 62" xml:space="preserve">
<g id="pin">
	<g>
		<circle fill="#FFFFFF" cx="20.9" cy="21.3" r="12.4"/>
		<g>
			<path fill="#EAAB44" d="M20.5,0C9.2,0,0,9.2,0,20.5c0,4.6,2.9,12,8.9,22.7c4.2,7.6,8.4,13.9,8.6,14.2l3,4.6l3-4.6
				c0.2-0.3,4.3-6.6,8.6-14.2c6-10.7,8.9-18.1,8.9-22.7C41,9.2,31.8,0,20.5,0z M20.5,31c-5.9,0-10.6-4.8-10.6-10.6
				S14.7,9.8,20.5,9.8c5.9,0,10.6,4.8,10.6,10.6S26.4,31,20.5,31z"/>
		</g>
	</g>
</g>
</svg>
