<?xml version="1.0" encoding="utf-8"?>
<!-- Generator: Adobe Illustrator 20.1.0, SVG Export Plug-In . SVG Version: 6.00 Build 0)  -->
<svg version="1.1" id="Слой_1" xmlns="http://www.w3.org/2000/svg" xmlns:xlink="http://www.w3.org/1999/xlink" x="0px" y="0px"
	 viewBox="0 0 40 40" style="enable-background:new 0 0 40 40;" xml:space="preserve">
<style type="text/css">
	.st0{fill:#A0AEB7;}
	.st1{fill:none;stroke:#A0AEB7;stroke-miterlimit:10;}
</style>
<g id="social_x5F_fb">
	<g>
		<g>
			<path id="Facebook_1_" class="st0" d="M18.6,16c0,0.4,0,2.2,0,2.2H17v2.6h1.6v7.9h3.3v-7.9H24c0,0,0.2-1.3,0.3-2.7
				c-0.3,0-2.5,0-2.5,0s0-1.5,0-1.8s0.4-0.6,0.7-0.6c0.4,0,1.1,0,1.8,0c0-0.4,0-1.6,0-2.8c-0.9,0-2,0-2.4,0
				C18.5,12.9,18.6,15.6,18.6,16z"/>
		</g>
		<rect x="0.5" y="0.5" class="st1" width="38.9" height="38.9"/>
	</g>
</g>
</svg>
