<?xml version="1.0" encoding="utf-8"?>
<!-- Generator: Adobe Illustrator 20.1.0, SVG Export Plug-In . SVG Version: 6.00 Build 0)  -->
<svg version="1.1" id="Слой_1" xmlns="http://www.w3.org/2000/svg" xmlns:xlink="http://www.w3.org/1999/xlink" x="0px" y="0px"
	 viewBox="0 0 90 30" style="enable-background:new 0 0 90 30;" xml:space="preserve">
<g id="logo_x5F_white">
	<g>
		<path style="fill:#EAAC44;" d="M16.1,30C29.6,23,32,14.8,34.6,4.2l-6.9,4.1c-0.2,7.3-4.3,13.7-11.6,17.9C5.7,18.9,2.5,10.5,5.6,8
			c1.5-1.2,4.3-1.2,7.7,3.2l1.9-1.7C9.9,1.1,4.5,2.3,2.3,4C-2.5,8-0.6,18.8,16.1,30z"/>
		<path style="fill:#FFFFFF;" d="M44.8,8c0-1-0.8-1.6-2.3-1.6c-2.4,0-4.1,1.7-4.1,4.2c0,2.3,1.7,4,4,4c1.1,0,2.4-0.5,2.4-1.5v-0.5
			c-0.5,0.4-1.3,0.8-2.2,0.8c-1.7,0-2.7-1.1-2.7-3c0-1.6,1.1-2.7,2.6-2.7c0.7,0,1.7,0.2,2.2,0.8L44.8,8L44.8,8z"/>
		<path style="fill:#FFFFFF;" d="M71.3,26c0.9,0,1.9-0.2,2.4-0.4c-0.1-0.9,0-2.5,0-4.9c0-0.7-0.4-1.1-1.3-1.1h-0.2
			c0,2.1-0.1,3.7,0,4.7l0,0c-0.2,0-0.5,0.1-1,0.1c-1,0-1.5-0.3-1.5-1.4v-2.3c0-0.7-0.4-1.1-1.3-1.1h-0.2v3.5
			C68.2,25.2,69.2,26,71.3,26z"/>
		<path style="fill:#FFFFFF;" d="M58.5,14.4h0.3V9.2c0-0.7-0.4-1.1-1.3-1.1h-0.2v2.5h-2.6V9.2c0-0.7-0.4-1.1-1.3-1.1h-0.2v5.1
			c0,0.7,0.4,1.1,1.1,1.1h0.3v-2.7h2.6v1.7C57.3,14.1,57.7,14.4,58.5,14.4z"/>
		<path style="fill:#FFFFFF;" d="M62.9,16.5c1.9,0,3.1-1.1,3.1-2.8v-3c0-1.8-0.9-2.7-2.6-2.7c-1.6,0-3.3,1-3.3,3.1
			c0,1.6,1.1,2.6,2.7,2.6c1.3,0,1.6-0.9,1.6-0.9v0.8c0,1-0.6,1.6-1.7,1.6c-1,0-1.6-0.2-2.1-0.6v0.5C60.8,16,61.6,16.5,62.9,16.5z
			 M63.1,12.5c-0.8,0-1.3-0.6-1.3-1.5c0-1,0.6-1.7,1.5-1.7c0.8,0,1.3,0.6,1.3,1.6C64.5,11.9,64,12.5,63.1,12.5z"/>
		<path style="fill:#FFFFFF;" d="M68.5,16.5h0.4v-2.9l0.1,0.2c0.3,0.6,0.9,0.8,1.6,0.8c1.7,0,2.8-1.3,2.8-3.5c0-1.9-1.5-3.1-2.9-3.1
			c-1.4,0-3.2,0.6-3.2,3.6v3.9C67.5,16.1,68,16.5,68.5,16.5z M70.4,9.3c1.1,0,1.6,0.7,1.6,2.2c0,1.1-0.6,1.8-1.4,1.8
			c-1,0-1.7-0.8-1.7-2.1C68.9,10,69.5,9.3,70.4,9.3z"/>
		<path style="fill:#FFFFFF;" d="M77.6,8.1c-1.9,0-3.1,1.3-3.1,3.4c0,1.6,1,3.2,3,3.2c1.9,0,3.1-1.3,3.1-3.4
			C80.6,9.6,79.5,8.1,77.6,8.1z M77.6,13.3c-1,0-1.6-0.7-1.6-2.1c0-1.2,0.6-1.9,1.5-1.9c1,0,1.6,0.7,1.6,2.1
			C79,12.6,78.5,13.3,77.6,13.3z"/>
		<path style="fill:#FFFFFF;" d="M87.8,8.2h-0.4c-0.9,1.6-1.8,4.3-1.8,4.3S85.1,11,85,10.8c-0.4-1.2-0.9-2.7-2.2-2.7h-0.5
			c-0.3,1.5-0.6,3.7-0.6,5.3c0,0.6,0.5,0.9,0.9,0.9h0.5c0-1.2,0.1-3.1,0.3-4.3V9.8c0,0,0.1,0.1,0.2,0.3c0.2,0.7,0.8,2.4,0.8,2.6
			c0.5,1.4,0.9,1.7,1.3,1.7H86c0.4-0.8,1.1-3.5,1.7-4.5c0,0,0.2,1.2,0.2,3.7c0,0.6,0.3,0.9,0.9,0.9h0.7c0-1.3-0.2-3-0.4-4.9
			C89,8.5,88.6,8.2,87.8,8.2z"/>
		<path style="fill:#FFFFFF;" d="M40.6,19.7h-0.3c-0.7,1-1.4,2.6-1.8,3.7c-0.4,1.1-0.5,1.8-0.5,1.9c0,0.5,0.2,0.7,0.7,0.7h0.6
			c0.2-1.5,0.8-3.2,1.4-4.4l0.1-0.1l0.1,0.1c0.7,1.4,1,2.7,1.2,3.8c0.1,0.3,0.4,0.7,0.9,0.7h0.8c-0.2-1.7-1.2-4.3-2.1-5.6
			C41.3,19.9,41.1,19.7,40.6,19.7z"/>
		<path style="fill:#FFFFFF;" d="M46,25.9h0.3v-2.7h0.9v0.1c0.1,1.4,1.1,2.8,3,2.8c1.9,0,3.1-1.3,3.1-3.4c0-1.6-1-3.2-3-3.2
			c-1.6,0-2.7,1-3,2.6v0.1h-1v-1.5c0-0.7-0.4-1.1-1.3-1.1h-0.2v5.1C44.8,25.7,45.2,25.9,46,25.9z M50.1,20.9c1,0,1.6,0.7,1.6,2.1
			c0,1.2-0.5,1.9-1.5,1.9s-1.6-0.7-1.6-2.1C48.7,21.6,49.2,20.9,50.1,20.9z"/>
		<path style="fill:#FFFFFF;" d="M55.3,18.4c-0.9,0.9-0.9,2.7-0.9,4v0.3c0,1.7,0.8,3.6,3.1,3.6c1.8,0,2.9-1.3,2.9-3.3
			c0-1.8-1.1-3.1-2.8-3.1c-0.7,0-1.7,0.3-2.1,1.1l0,0h-0.1v-0.1c0-0.5,0.1-1,0.7-1.5s1.4-0.5,2.2-0.5h0.5c0.5,0,0.9-0.3,0.9-0.7
			v-0.6h-1.3C57.3,17.6,56.1,17.6,55.3,18.4z M57.2,21.1c0.7,0,1.6,0.4,1.6,2c0,1.1-0.5,1.8-1.4,1.8c-1.1,0-1.6-0.7-1.6-2
			C55.8,21.8,56.4,21.1,57.2,21.1z"/>
		<path style="fill:#FFFFFF;" d="M64.2,26.1c2,0,2.7-1.1,2.7-2.1c0-0.5-0.3-1.1-1-1.4l-0.1-0.1l0.1-0.1c0.5-0.3,0.8-0.7,0.8-1.3
			c0-1.6-1.9-1.8-2.7-1.8c-1.1,0-2,0.3-2.5,0.5v4C61.6,24.9,62,26.1,64.2,26.1z M63.1,20.9L63.1,20.9c0.4-0.1,0.7-0.2,1.1-0.2
			c0.6,0,1.2,0.1,1.2,0.8c0,0.6-0.3,0.8-1.2,0.8h-1.1V20.9z M63.1,23.3h1.2c0.8,0,1.2,0.3,1.2,0.9s-0.5,0.9-1.3,0.9
			c-0.4,0-1.1-0.3-1.1-1C63.1,24.1,63.1,23.3,63.1,23.3z"/>
		<path style="fill:#FFFFFF;" d="M49.3,14.5c0.9,0,1.9-0.2,2.4-0.4c-0.1-0.9,0-2.5,0-4.9c0-0.7-0.4-1.1-1.3-1.1h-0.2
			c0,2.1-0.1,3.7,0,4.7l0,0c-0.2,0-0.5,0.1-1,0.1c-1,0-1.5-0.3-1.5-1.4V9.1c0-0.7-0.4-1.1-1.3-1.1h-0.2v3.5
			C46.3,13.6,47.2,14.5,49.3,14.5z"/>
		
			<linearGradient id="SVGID_1_" gradientUnits="userSpaceOnUse" x1="7.238" y1="27.6432" x2="27.7279" y2="15.8133" gradientTransform="matrix(1 0 0 -1 0 32)">
			<stop  offset="0.2282" style="stop-color:#D24A43"/>
			<stop  offset="0.4533" style="stop-color:#D76743"/>
			<stop  offset="1" style="stop-color:#EAAC44"/>
		</linearGradient>
		<path style="fill:url(#SVGID_1_);" d="M34.6,4.2l-6.9,4.1C14-0.1,12.5,24.3,3.3,18.1c-0.8-1.2-1.5-2.4-2-3.6
			C11.8,24.7,11.1-11.9,34.6,4.2z"/>
	</g>
</g>
</svg>
