<?xml version="1.0" encoding="utf-8"?>
<!-- Generator: Adobe Illustrator 20.1.0, SVG Export Plug-In . SVG Version: 6.00 Build 0)  -->
<svg version="1.1" id="Слой_1" xmlns="http://www.w3.org/2000/svg" xmlns:xlink="http://www.w3.org/1999/xlink" x="0px" y="0px"
	 viewBox="0 0 40 40" style="enable-background:new 0 0 40 40;" xml:space="preserve">
<style type="text/css">
	.st0{fill:#A0AEB7;}
	.st1{fill:none;stroke:#A0AEB7;stroke-miterlimit:10;}
</style>
<g id="social_x5F_vk">
	<g>
		<g id="XMLID_1_">
			<path id="XMLID_807_" fill="#A0AEB7" d="M25.7,22.9c0.5,0.5,1.1,1,1.6,1.6c0.2,0.3,0.4,0.5,0.6,0.8c0.2,0.4,0,0.9-0.4,0.9h-2.4
				c-0.6,0.1-1.1-0.2-1.5-0.6c-0.3-0.3-0.6-0.7-1-1c-0.1-0.1-0.3-0.3-0.4-0.4c-0.3-0.2-0.6-0.1-0.8,0.2c-0.2,0.3-0.2,0.7-0.3,1.1
				c0,0.6-0.2,0.7-0.8,0.7c-1.2,0.1-2.4-0.1-3.4-0.7c-0.9-0.5-1.7-1.3-2.3-2.2c-1.2-1.7-2.2-3.5-3-5.4c-0.2-0.4-0.1-0.7,0.4-0.7
				c0.8,0,1.6,0,2.3,0c0.3,0,0.5,0.2,0.6,0.5c0.4,1,0.9,2,1.6,2.9c0.2,0.2,0.3,0.5,0.6,0.7c0.3,0.2,0.5,0.1,0.6-0.2
				c0.1-0.2,0.1-0.4,0.1-0.6c0.1-0.7,0.1-1.4,0-2.2c-0.1-0.4-0.3-0.7-0.8-0.8c-0.2,0-0.2-0.1-0.1-0.3c0.2-0.2,0.4-0.4,0.7-0.4h2.7
				c0.4,0.1,0.5,0.3,0.6,0.7v3c0,0.2,0.1,0.7,0.4,0.8c0.2,0.1,0.4-0.1,0.5-0.3c0.6-0.7,1.1-1.5,1.5-2.3c0.2-0.4,0.3-0.8,0.5-1.1
				c0.1-0.3,0.3-0.4,0.6-0.4H27c0.1,0,0.2,0,0.2,0c0.4,0.1,0.6,0.3,0.4,0.7c-0.2,0.7-0.6,1.2-1,1.8c-0.4,0.6-0.9,1.2-1.3,1.8
				C25.2,22.1,25.2,22.4,25.7,22.9L25.7,22.9z"/>
		</g>
		<rect x="0.6" y="0.6" fill="none" stroke="#A0AEB7" stroke-miterlimit="10" width="38.8" height="38.8"/>
	</g>
</g>
</svg>
