<?xml version="1.0" encoding="utf-8"?>
<!-- Generator: Adobe Illustrator 20.1.0, SVG Export Plug-In . SVG Version: 6.00 Build 0)  -->
<svg version="1.1" id="Слой_1" xmlns="http://www.w3.org/2000/svg" xmlns:xlink="http://www.w3.org/1999/xlink" x="0px" y="0px"
	 viewBox="0 0 18 20" enable-background="new 0 0 18 20" xml:space="preserve">
<g id="clock">
	<g>
		<g>
			<path fill="#FFFFFF" d="M0,10.9c0,5,4,9,9,9s9-4,9-9c0-2.5-1-4.7-2.6-6.3l0.7-0.7l0.3,0.3c0.1,0.1,0.3,0.2,0.5,0.2
				s0.4-0.1,0.5-0.2c0.3-0.3,0.3-0.7,0-1l-1.6-1.6c-0.3-0.3-0.7-0.3-1,0s-0.3,0.7,0,1l0.3,0.3l-0.8,0.8C13,2.7,11.4,2.1,9.7,2V1.4
				h1.6c0.4,0,0.7-0.3,0.7-0.7S11.7,0,11.3,0H6.6C6.2,0,5.9,0.3,5.9,0.7s0.3,0.7,0.7,0.7h1.7V2C3.7,2.3,0,6.2,0,10.9z M9,3.3
				c4.2,0,7.6,3.4,7.6,7.6c0,4.2-3.4,7.6-7.6,7.6s-7.6-3.4-7.6-7.6C1.4,6.7,4.8,3.3,9,3.3z"/>
			<path fill="#FFFFFF" d="M9,11.5h3c0.4,0,0.7-0.3,0.7-0.7c0-0.4-0.3-0.7-0.7-0.7H9.7V6.5c0-0.4-0.3-0.7-0.7-0.7S8.3,6.1,8.3,6.5
				v4.4C8.3,11.2,8.6,11.5,9,11.5z"/>
		</g>
	</g>
</g>
</svg>
