<?xml version="1.0" encoding="utf-8"?>
<!-- Generator: Adobe Illustrator 20.1.0, SVG Export Plug-In . SVG Version: 6.00 Build 0)  -->
<svg version="1.1" id="Слой_1" xmlns="http://www.w3.org/2000/svg" xmlns:xlink="http://www.w3.org/1999/xlink" x="0px" y="0px"
	 viewBox="0 0 187 63" enable-background="new 0 0 187 63" xml:space="preserve">
<g id="logo_x5F_main">
	<g>
		<path fill="#EAAC44" d="M33.6,62.3C61.6,47.7,66.7,30.7,72,8.6l-14.4,8.5c-0.5,15.1-8.7,28.6-24,37.2C12,39.2,5.3,21.8,11.7,16.5
			c3.1-2.6,8.9-2.5,16,6.6l3.9-3.5C20.5,2.4,9.2,4.7,4.7,8.4C-5.2,16.6-1.3,39.2,33.6,62.3z"/>
		<path fill="#1B1B1A" d="M93.1,16.5c0-2.1-1.7-3.3-4.6-3.3c-5,0-8.5,3.6-8.5,8.7c0,4.7,3.5,8.2,8.2,8.2c2.3,0,4.9-1,4.9-3.2v-1
			c-1,0.9-2.8,1.6-4.4,1.6c-3.4,0-5.5-2.3-5.5-6.1c0-3.3,2.2-5.6,5.4-5.6c1.5,0,3.5,0.5,4.6,1.7L93.1,16.5L93.1,16.5z"/>
		<path fill="#1B1B1A" d="M148.2,54.2c1.9,0,3.8-0.4,5-0.7c-0.2-1.9,0-5.2,0-10.2c0-1.5-0.8-2.2-2.6-2.2h-0.4c0,4.3-0.2,7.6,0,9.8
			h-0.1c-0.4,0.1-1.1,0.2-2,0.2c-2.1,0-3.2-0.5-3.2-2.8v-5c0-1.5-0.8-2.2-2.6-2.2h-0.4v7.1C141.9,52.3,143.9,54.2,148.2,54.2z"/>
		<path fill="#1B1B1A" d="M121.6,30h0.7V19.2c0-1.5-0.8-2.2-2.6-2.2h-0.4v5.1H114v-2.9c0-1.5-0.8-2.2-2.6-2.2H111v10.7
			c0,1.5,0.8,2.2,2.3,2.2h0.7v-5.6h5.3v3.4C119.3,29.2,120.1,30,121.6,30z"/>
		<path fill="#1B1B1A" d="M130.8,34.2c3.9,0,6.4-2.3,6.4-5.8v-6.1c0-3.6-1.9-5.6-5.3-5.6c-3.2,0-6.7,2-6.7,6.3
			c0,3.3,2.2,5.4,5.6,5.4c2.6,0,3.3-1.8,3.3-1.8v1.7c0,2-1.3,3.2-3.5,3.2c-2,0-3.4-0.4-4.4-1.3v1.1
			C126.3,33.1,128.2,34.2,130.8,34.2z M131.1,26c-1.6,0-2.8-1.3-2.8-3.1c0-2.1,1.3-3.5,3.1-3.5c1.6,0,2.6,1.2,2.6,3.2
			C134.1,24.7,132.9,26,131.1,26z"/>
		<path fill="#1B1B1A" d="M142.5,34.1h0.9v-6l0.2,0.4c0.7,1.2,1.9,1.7,3.2,1.7c3.6,0,5.8-2.8,5.8-7.2c0-3.9-3.1-6.4-5.9-6.4
			c-3,0-6.5,1.3-6.5,7.3v8C140.3,33.4,141.4,34.1,142.5,34.1z M146.3,19.3c2.2,0,3.3,1.5,3.3,4.6c0,2.2-1.2,3.7-2.8,3.7
			c-2.1,0-3.4-1.6-3.4-4.3C143.3,20.9,144.5,19.3,146.3,19.3z"/>
		<path fill="#1B1B1A" d="M161.3,16.7c-3.9,0-6.4,2.8-6.4,7c0,3.3,2.1,6.5,6.1,6.5c3.9,0,6.4-2.8,6.4-7
			C167.4,20,165.3,16.7,161.3,16.7z M161.3,27.6c-2.1,0-3.3-1.5-3.3-4.3c0-2.4,1.1-3.9,3-3.9c2.1,0,3.3,1.5,3.3,4.4
			C164.3,26.1,163.2,27.6,161.3,27.6z"/>
		<path fill="#1B1B1A" d="M182.6,17h-0.9c-1.9,3.2-3.7,9.1-3.7,9.1s-1-3.2-1.1-3.5c-0.8-2.4-1.8-5.6-4.5-5.6h-1.2
			c-0.6,3-1.3,7.7-1.3,11.2c0,1.2,0.9,1.8,1.9,1.8h1.1c0-2.4,0.3-6.3,0.6-9l0.1-0.5c0,0,0.2,0.3,0.3,0.7c0.5,1.5,1.6,5,1.7,5.3
			c1,2.9,1.8,3.5,2.7,3.5h0.7c0.8-1.6,2.3-7.2,3.5-9.4c0,0,0.3,2.5,0.5,7.6c0,1.2,0.7,1.8,1.9,1.8h1.3c0-2.7-0.3-6.2-0.8-10.3
			C185,17.8,184.1,17,182.6,17z"/>
		<path fill="#1B1B1A" d="M84.6,41H84c-1.5,2.1-3,5.4-3.8,7.5c-0.8,2.2-1.1,3.6-1.1,4c0,1,0.4,1.4,1.4,1.4h1.3
			c0.5-3.1,1.6-6.6,2.9-9.2l0.1-0.2l0.1,0.2c1.5,2.9,2.1,5.6,2.5,7.8c0.1,0.6,0.7,1.5,1.8,1.5h1.6c-0.3-3.6-2.5-9-4.3-11.7
			C86,41.3,85.5,41,84.6,41z"/>
		<path fill="#1B1B1A" d="M95.5,54h0.7v-5.6h1.9v0.1c0.3,2.9,2.3,5.8,6.1,5.8c3.9,0,6.4-2.8,6.4-7c0-3.3-2.1-6.6-6.1-6.6
			c-3.3,0-5.6,2-6.2,5.3v0.1h-2.1v-2.9c0-1.5-0.8-2.2-2.6-2.2h-0.4v10.8C93.2,53.3,94,54,95.5,54z M104.3,43.4
			c2.1,0,3.3,1.5,3.3,4.4c0,2.4-1.1,3.9-3,3.9c-2.1,0-3.3-1.5-3.3-4.3C101.3,44.9,102.4,43.4,104.3,43.4z"/>
		<path fill="#1B1B1A" d="M114.8,38.2c-1.9,1.8-1.9,5.5-1.9,8.1v0.5c0,3.6,1.7,7.4,6.3,7.4c3.7,0,6-2.6,6-6.7c0-3.7-2.3-6.3-5.7-6.3
			c-1.5,0-3.6,0.6-4.3,2.3v0.1H115v-0.1c0-1,0.2-2.1,1.4-3.2c1.1-1.1,3-1.1,4.4-1.1h1.1c1.1,0,1.8-0.6,1.8-1.4v-1.2h-2.6
			C119.3,36.6,116.5,36.6,114.8,38.2z M118.9,43.8c1.5,0,3.3,0.7,3.3,4.2c0,2.3-1.1,3.7-2.9,3.7c-2.2,0-3.3-1.5-3.3-4.2
			C116,45.3,117.2,43.8,118.9,43.8z"/>
		<path fill="#1B1B1A" d="M133.5,54.3c4.1,0,5.6-2.2,5.6-4.2c0-0.9-0.7-2.2-2-2.8l-0.2-0.1l0.2-0.1c1.1-0.6,1.7-1.5,1.7-2.6
			c0-3.3-3.8-3.7-5.5-3.7c-2.2,0-4,0.5-5.2,1V50C128.2,51.6,128.8,54.3,133.5,54.3z M131.1,43.4L131.1,43.4c0.9-0.3,1.4-0.4,2.3-0.4
			c1.2,0,2.4,0.2,2.4,1.6c0,1.2-0.7,1.7-2.4,1.7h-2.3V43.4z M131.1,48.3h2.4c1.7,0,2.4,0.5,2.4,1.8c0,1.2-1,2-2.6,2
			c-0.9,0-2.3-0.5-2.3-2v-1.8H131.1z"/>
		<path fill="#1B1B1A" d="M102.5,30.1c1.9,0,3.8-0.4,5-0.7c-0.2-1.9,0-5.2,0-10.2c0-1.5-0.8-2.2-2.6-2.2h-0.4c0,4.3-0.2,7.6,0,9.8
			h-0.1c-0.4,0.1-1.1,0.2-2,0.2c-2.1,0-3.2-0.5-3.2-2.8v-5c0-1.5-0.8-2.2-2.6-2.2h-0.4v7.1C96.1,28.2,98.1,30.1,102.5,30.1z"/>
		
			<linearGradient id="SVGID_1_" gradientUnits="userSpaceOnUse" x1="15.0393" y1="55.0319" x2="57.6132" y2="30.4519" gradientTransform="matrix(1 0 0 -1 0 64)">
			<stop  offset="0.2282" style="stop-color:#D24A43"/>
			<stop  offset="0.4533" style="stop-color:#D76743"/>
			<stop  offset="1" style="stop-color:#EAAC44"/>
		</linearGradient>
		<path fill="url(#SVGID_1_)" d="M72,8.7l-14.4,8.5C28.9-0.3,26,50.5,6.8,37.7c-1.7-2.5-3.1-5-4.2-7.3C24.4,51.2,23.1-24.8,72,8.7z"
			/>
	</g>
</g>
</svg>
