<?xml version="1.0" encoding="utf-8"?>
<!-- Generator: Adobe Illustrator 21.0.0, SVG Export Plug-In . SVG Version: 6.00 Build 0)  -->
<svg version="1.1" id="Capa_1" xmlns="http://www.w3.org/2000/svg" xmlns:xlink="http://www.w3.org/1999/xlink" x="0px" y="0px"
	 viewBox="0 0 485.2 373" style="enable-background:new 0 0 485.2 373;" xml:space="preserve">
<style type="text/css">
	.st0{fill:#EE3B39;}
</style>
<g>
	<path class="st0" d="M485.2,307.9c0,10.6-3,20.5-7.8,29.2L324.2,165.7L475.8,33.1c5.9,9.4,9.4,20.3,9.4,32.2L485.2,307.9
		L485.2,307.9z M242.6,196.8L453.5,12.3c-8.7-4.7-18.4-7.6-28.9-7.6H60.7c-10.5,0-20.3,2.9-28.9,7.6L242.6,196.8z M301.4,185.6
		l-48.8,42.7c-2.9,2.5-6.4,3.7-10,3.7c-3.6,0-7.1-1.2-10-3.7l-48.8-42.7L28.7,359.2c9.3,5.8,20.2,9.3,32,9.3h363.9
		c11.8,0,22.7-3.5,32-9.3L301.4,185.6z M9.4,33.1C3.6,42.4,0,53.4,0,65.3v242.6c0,10.6,3,20.5,7.8,29.2L161,165.6L9.4,33.1z"/>
</g>
</svg>
