<?xml version="1.0" encoding="utf-8"?>
<svg version="1.1" id="Слой_1" xmlns="http://www.w3.org/2000/svg" xmlns:xlink="http://www.w3.org/1999/xlink" x="0px" y="0px"
	 viewBox="0 0 92.1 32.2" style="enable-background:new 0 0 92.1 32.2;" xml:space="preserve">
	  <rect x="0" y="0" fill="#E27E35" width="32.2" height="32.2"/>
        	<rect x="32.2" y="0" fill="#F4863B" width="60" height="32.2"/>
    			<path fill="#FFFFFF" d="M13.7,24.1c-0.3-0.1-0.5-0.2-0.7-0.5c-0.2-0.3-0.2-0.7,0.1-1c0.2-0.2,0.4-0.4,0.5-0.6
    				c0.7-0.7,1.3-1.3,2-2c0.1-0.1,0.2-0.2,0.2-0.3c-0.2,0-0.4-0.1-0.5-0.1c-0.7-0.1-1.4-0.3-2.1-0.7c-0.3-0.2-0.5-0.4-0.8-0.6
    				c-0.4-0.4-0.4-0.8,0-1.2c0.3-0.3,0.7-0.4,1.2-0.2c0.3,0.2,0.6,0.4,0.9,0.5c1.7,0.7,3.3,0.6,4.8-0.4c0.2-0.1,0.4-0.3,0.7-0.3
    				c0.4,0,0.7,0.2,0.8,0.6c0.1,0.3,0.1,0.7-0.2,0.9c-0.6,0.6-1.4,1-2.3,1.2c-0.3,0.1-0.7,0.1-1.1,0.2c0.1,0.1,0.2,0.2,0.2,0.3
    				c0.8,0.8,1.6,1.6,2.4,2.4c0.3,0.3,0.4,0.5,0.3,0.9c-0.1,0.4-0.4,0.6-0.8,0.7c0,0,0,0,0,0c-0.1,0-0.1,0-0.2,0
    				c-0.3-0.1-0.5-0.3-0.7-0.5c-0.6-0.6-1.1-1.2-1.7-1.7c-0.2-0.2-0.3-0.2-0.5,0c0,0-0.1,0.1-0.1,0.1c-0.5,0.5-1.1,1.1-1.6,1.6
    				c-0.2,0.2-0.4,0.4-0.7,0.5C13.9,24.1,13.8,24.1,13.7,24.1z"/>
    			<path fill="#FFFFFF" d="M16.9,9.5c0.2,0,0.5,0.1,0.7,0.1c1.4,0.4,2.5,1.6,2.7,3.1c0.2,1.7-0.7,3.2-2.2,3.9
    				c-1.7,0.7-3.6,0.1-4.6-1.5c-1-1.7-0.6-3.9,1.1-5c0.5-0.3,1-0.5,1.6-0.6c0,0,0.1,0,0.1,0C16.5,9.5,16.7,9.5,16.9,9.5z M14.8,13.2
    				c0,1,0.8,1.8,1.8,1.8c1,0,1.8-0.8,1.8-1.8c0-1-0.8-1.8-1.8-1.8C15.6,11.4,14.8,12.2,14.8,13.2z"/>
</svg>
