<?xml version="1.0" encoding="utf-8"?>
<svg version="1.1" id="Слой_1" xmlns="http://www.w3.org/2000/svg" xmlns:xlink="http://www.w3.org/1999/xlink" x="0px" y="0px"
	 viewBox="0 0 92.1 32.2" style="enable-background:new 0 0 92.1 32.2;" xml:space="preserve">
	  <rect x="0" y="0" fill="#507299" width="32.2" height="32.2"/>
        	<rect x="32.2" y="0" fill="#5F89B2" width="60" height="32.2"/>
        	<g id="XMLID_4_">
        		<path id="XMLID_5_" fill="#FFFFFF" d="M21.4,18.4c0.5,0.4,0.9,0.9,1.3,1.3c0.2,0.2,0.3,0.4,0.5,0.7c0.2,0.4,0,0.7-0.3,0.8l-2,0
        			c-0.5,0-0.9-0.2-1.3-0.5c-0.3-0.3-0.5-0.6-0.8-0.9c-0.1-0.1-0.2-0.2-0.4-0.3c-0.3-0.2-0.5-0.1-0.7,0.2c-0.2,0.3-0.2,0.6-0.2,0.9
        			c0,0.5-0.2,0.6-0.6,0.6c-1,0-1.9-0.1-2.8-0.6c-0.8-0.4-1.4-1.1-1.9-1.8c-1-1.4-1.8-2.9-2.5-4.5c-0.2-0.4,0-0.5,0.3-0.5
        			c0.6,0,1.3,0,1.9,0c0.3,0,0.4,0.2,0.5,0.4c0.3,0.9,0.8,1.7,1.3,2.4c0.1,0.2,0.3,0.4,0.5,0.5c0.2,0.2,0.4,0.1,0.5-0.2
        			c0.1-0.2,0.1-0.3,0.1-0.5c0.1-0.6,0.1-1.2,0-1.8c-0.1-0.4-0.3-0.6-0.6-0.7c-0.2,0-0.2-0.1-0.1-0.2c0.2-0.2,0.3-0.3,0.6-0.3h2.2
        			c0.4,0.1,0.4,0.2,0.5,0.6l0,2.5c0,0.1,0.1,0.5,0.3,0.6c0.2,0.1,0.3-0.1,0.4-0.2c0.5-0.6,0.9-1.2,1.3-1.9c0.2-0.3,0.3-0.6,0.4-0.9
        			c0.1-0.2,0.2-0.4,0.5-0.3l2.2,0c0.1,0,0.1,0,0.2,0c0.4,0.1,0.5,0.2,0.3,0.6c-0.2,0.6-0.5,1-0.9,1.5c-0.4,0.5-0.7,1-1.1,1.5
        			C21,17.7,21,18,21.4,18.4L21.4,18.4z"/>
        	</g>
</svg>
